<svg xmlns="http://www.w3.org/2000/svg" viewBox="0 0 18 24" shape-rendering="crispEdges" width="36" height="48">
  <!-- Hair (Dark Brown Side-parted) -->
  <path d="M6,1 h6 v1 h-6 z M4,2 h9 v2 h-9 z M3,4 h6 v3 h-6 z M3,2 h3 v3 h-3 z" fill="#1C1412" />
  
  <!-- Face (Warm Tan Skin) -->
  <path d="M3,5 h12 v7 h-12 z" fill="#D89E6E" />
  <!-- Skin Shadow Base -->
  <path d="M3,11 h12 v1 h-12 z" fill="#C28B5B" />
  
  <!-- Pixel Eye (Left & Right) -->
  <path d="M6,7 h2 v2 h-2 z M13,7 h2 v2 h-2 z" fill="#000000" />

  <!-- Black Collar / Neck Band -->
  <path d="M5,12 h8 v1 h-8 z" fill="#0A0A0A" />
  <!-- Neck Skin -->
  <path d="M6,13 h6 v1 h-6 z" fill="#C28B5B" />

  <!-- Suit Jacket (Dark Charcoal / Navy) -->
  <path d="M1,14 h16 v10 h-16 z" fill="#1E293B" />
  <!-- Suit Black Outer Outline -->
  <path d="M1,14 h1 v10 h-1 z M16,14 h1 v10 h-1 z M1,23 h16 v1 h-16 z" fill="#0A0A0A" />

  <!-- White Shirt V-Collar -->
  <path d="M6,14 h6 v5 h-6 z" fill="#FFFFFF" />

  <!-- Blue Necktie -->
  <path d="M8,15 h2 v8 h-2 z" fill="#1D4ED8" />
  
  <!-- Suit Buttons & Pockets -->
  <path d="M4,19 h3 v2 h-3 z M11,19 h3 v2 h-3 z" fill="#0F172A" />
</svg>
